{
  "accessors": [
    {
      "name": "Jet_1_0_positions",
      "componentType": 5126,
      "count": 678,
      "min": [
        -68.32469940185547,
        0.00021499999274965376,
        -64.8664321899414
      ],
      "max": [
        68.32469940185547,
        39.5657844543457,
        64.8664321899414
      ],
      "type": "VEC3",
      "bufferView": 0,
      "byteOffset": 0
    },
    {
      "name": "Jet_1_0_texcoords",
      "componentType": 5126,
      "count": 678,
      "min": [
        0.08027900010347366,
        0.07291900366544724
      ],
      "max": [
        0.8873220086097717,
        0.8156279921531677
      ],
      "type": "VEC2",
      "bufferView": 1,
      "byteOffset": 0
    },
    {
      "name": "Jet_1_0_indices",
      "componentType": 5123,
      "count": 2784,
      "min": [
        0
      ],
      "max": [
        677
      ],
      "type": "SCALAR",
      "bufferView": 2,
      "byteOffset": 0
    }
  ],
  "asset": {
    "generator": "obj2gltf",
    "version": "2.0"
  },
  "buffers": [
    {
      "name": "jet",
      "byteLength": 19984,
      "uri": "data:application/octet-stream;base64,"
    }
  ],
  "bufferViews": [
    {
      "name": "bufferView_0",
      "buffer": 0,
      "byteLength": 8136,
      "byteOffset": 0,
      "byteStride": 12,
      "target": 34962
    },
    {
      "name": "bufferView_1",
      "buffer": 0,
      "byteLength": 5424,
      "byteOffset": 8136,
      "byteStride": 8,
      "target": 34962
    },
    {
      "name": "bufferView_2",
      "buffer": 0,
      "byteLength": 5568,
      "byteOffset": 13560,
      "target": 34963
    },
    {
      "buffer": 0,
      "byteOffset": 19128,
      "byteLength": 851
    }
  ],
  "images": [
    {
      "name": "1397 Jet",
      "mimeType": "image/png",
      "bufferView": 3
    }
  ],
  "materials": [
    {
      "name": "Mat",
      "pbrMetallicRoughness": {
        "baseColorTexture": {
          "index": 0,
          "texCoord": 0
        },
        "baseColorFactor": [
          1,
          1,
          1,
          1
        ],
        "metallicFactor": 0,
        "roughnessFactor": 1
      },
      "emissiveFactor": [
        0,
        0,
        0
      ],
      "alphaMode": "OPAQUE",
      "doubleSided": false
    }
  ],
  "meshes": [
    {
      "name": "Jet_1",
      "primitives": [
        {
          "attributes": {
            "POSITION": 0,
            "TEXCOORD_0": 1
          },
          "indices": 2,
          "material": 0,
          "mode": 4
        }
      ]
    }
  ],
  "nodes": [
    {
      "name": "Jet",
      "mesh": 0
    }
  ],
  "samplers": [
    {
      "magFilter": 9729,
      "minFilter": 9986,
      "wrapS": 10497,
      "wrapT": 10497
    }
  ],
  "scene": 0,
  "scenes": [
    {
      "nodes": [
        0
      ]
    }
  ],
  "textures": [
    {
      "name": "1397 Jet",
      "sampler": 0,
      "source": 0
    }
  ]
}
